<?xml version="1.0" encoding="utf-8"?>
<!-- Svg Vector Icons : http://www.onlinewebfonts.com/icon -->
<!DOCTYPE svg PUBLIC "-//W3C//DTD SVG 1.1//EN" "http://www.w3.org/Graphics/SVG/1.1/DTD/svg11.dtd">
<svg version="1.1" xmlns="http://www.w3.org/2000/svg" xmlns:xlink="http://www.w3.org/1999/xlink" x="0px" y="0px" viewBox="0 0 1000 1000" enable-background="new 0 0 1000 1000" xml:space="preserve">
<metadata> Svg Vector Icons : http://www.onlinewebfonts.com/icon </metadata>
<g><g><path d="M500,42.7l490,196V304h-65.3c0,8.8-3.5,16.5-10.5,23c-7,6.5-15.2,9.7-24.8,9.7H110.6c-9.5,0-17.8-3.2-24.8-9.7c-7-6.5-10.5-14.1-10.5-23H10v-65.3L500,42.7z M140.7,369.3h130.7v392h65.3v-392h130.7v392h65.3v-392h130.7v392h65.3v-392h130.7v392h30.1c9.5,0,17.8,3.2,24.8,9.7c7,6.5,10.5,14.1,10.5,23v32.7H75.3V794c0-8.8,3.5-16.5,10.5-23c7-6.5,15.2-9.7,24.8-9.7h30.1V369.3z M954.8,859.3c9.5,0,17.8,3.2,24.8,9.7c7,6.5,10.5,14.1,10.5,23v65.3H10V892c0-8.8,3.5-16.5,10.5-23s15.2-9.7,24.8-9.7H954.8L954.8,859.3z"/></g></g>
</svg>